<svg width="24" height="24" viewBox="0 0 24 24" fill="none" xmlns="http://www.w3.org/2000/svg">
<path d="M7 22.375C6.45 22.375 5.97917 22.1792 5.5875 21.7875C5.19583 21.3958 5 20.925 5 20.375C5 19.825 5.19583 19.3542 5.5875 18.9625C5.97917 18.5708 6.45 18.375 7 18.375C7.55 18.375 8.02083 18.5708 8.4125 18.9625C8.80417 19.3542 9 19.825 9 20.375C9 20.925 8.80417 21.3958 8.4125 21.7875C8.02083 22.1792 7.55 22.375 7 22.375ZM17 22.375C16.45 22.375 15.9792 22.1792 15.5875 21.7875C15.1958 21.3958 15 20.925 15 20.375C15 19.825 15.1958 19.3542 15.5875 18.9625C15.9792 18.5708 16.45 18.375 17 18.375C17.55 18.375 18.0208 18.5708 18.4125 18.9625C18.8042 19.3542 19 19.825 19 20.375C19 20.925 18.8042 21.3958 18.4125 21.7875C18.0208 22.1792 17.55 22.375 17 22.375ZM5.425 3.625H19.225C19.902 3.625 20.4171 3.92083 20.7703 4.5125C21.1234 5.10417 21.1333 5.70833 20.8 6.325L17.825 11.75C17.6083 12.1333 17.3171 12.4375 16.9513 12.6625C16.5854 12.8875 16.185 13 15.75 13H8.525L7.65 14.625H19.375V17.375H7C6.06667 17.375 5.375 16.9792 4.925 16.1875C4.475 15.3958 4.46667 14.6167 4.9 13.85L6.175 11.6L2.775 4.375H0.625V1.625H4.475L5.425 3.625Z" fill="white"/>
</svg>
