<svg width="24" height="24" viewBox="0 0 24 24" fill="none" xmlns="http://www.w3.org/2000/svg">
<path d="M14.873 8.00195C14.873 8.55424 15.3208 9.00195 15.873 9.00195H21C21.5523 9.00195 22 9.44967 22 10.002V14.002C22 14.5542 21.5523 15.002 21 15.002H15.873C15.3208 15.002 14.873 15.4497 14.873 16.002V21C14.873 21.5523 14.4253 22 13.873 22H9.87305C9.32076 22 8.87305 21.5523 8.87305 21V16.002C8.87305 15.4497 8.42533 15.002 7.87305 15.002H3C2.44772 15.002 2 14.5542 2 14.002V10.002C2 9.44967 2.44772 9.00195 3 9.00195H7.87305C8.42533 9.00195 8.87305 8.55424 8.87305 8.00195V3C8.87305 2.44772 9.32076 2 9.87305 2H13.873C14.4253 2 14.873 2.44772 14.873 3V8.00195Z" fill="white"/>
</svg>
