<svg width="24" height="24" viewBox="0 0 24 24" fill="none" xmlns="http://www.w3.org/2000/svg">
<path d="M3.15 22.85V16.875C4.25 16.1417 5.1875 15.35 5.9625 14.5C6.7375 13.65 7.34167 12.6583 7.775 11.525H5.225V8.37499H7.2C7.06667 8.05833 6.96667 7.73441 6.9 7.40324C6.83333 7.07208 6.8 6.72099 6.8 6.34999C6.8 4.90549 7.30617 3.67774 8.3185 2.66674C9.33067 1.65558 10.5598 1.14999 12.006 1.14999C13.452 1.14999 14.6792 1.65558 15.6875 2.66674C16.6958 3.67774 17.2 4.90549 17.2 6.34999C17.2 6.72099 17.1667 7.07208 17.1 7.40324C17.0333 7.73441 16.9333 8.05833 16.8 8.37499H18.775V11.525H16.25C16.6833 12.6583 17.2875 13.65 18.0625 14.5C18.8375 15.35 19.7667 16.1417 20.85 16.875V22.85H3.15Z" fill="white"/>
</svg>
