<svg width="24" height="24" viewBox="0 0 24 24" fill="none" xmlns="http://www.w3.org/2000/svg">
<path d="M4.95 21.85L2.675 9.42499C1.95833 9.42499 1.33333 9.17083 0.8 8.66249C0.266667 8.15416 0 7.54166 0 6.82499C0 6.10833 0.254167 5.49999 0.7625 4.99999C1.27083 4.49999 1.88333 4.24999 2.6 4.24999C3.31667 4.24999 3.92917 4.49999 4.4375 4.99999C4.94583 5.49999 5.2 6.10833 5.2 6.82499C5.2 7.00833 5.18333 7.18749 5.15 7.36249C5.11667 7.53749 5.05833 7.70833 4.975 7.87499C5.25833 8.00833 5.54167 8.11666 5.825 8.19999C6.10833 8.28333 6.41667 8.32499 6.75 8.32499C7.4 8.32499 8.00833 8.16249 8.575 7.83749C9.14167 7.51249 9.58333 7.05833 9.9 6.47499L10.325 5.72499C10.0417 5.49166 9.82083 5.19999 9.6625 4.84999C9.50417 4.49999 9.425 4.13333 9.425 3.74999C9.425 3.03333 9.675 2.42083 10.175 1.91249C10.675 1.40416 11.2833 1.14999 12 1.14999C12.7167 1.14999 13.3292 1.40416 13.8375 1.91249C14.3458 2.42083 14.6 3.03333 14.6 3.74999C14.6 4.13333 14.5208 4.49999 14.3625 4.84999C14.2042 5.19999 13.9833 5.49166 13.7 5.72499L14.125 6.47499C14.4417 7.05833 14.8833 7.51249 15.45 7.83749C16.0167 8.16249 16.625 8.32499 17.275 8.32499C17.5917 8.32499 17.8917 8.28749 18.175 8.21249C18.4583 8.13749 18.7417 8.03333 19.025 7.89999C18.9417 7.73333 18.8833 7.55833 18.85 7.37499C18.8167 7.19166 18.8 7.00833 18.8 6.82499C18.8 6.10833 19.0542 5.49999 19.5625 4.99999C20.0708 4.49999 20.6833 4.24999 21.4 4.24999C22.1167 4.24999 22.7292 4.49999 23.2375 4.99999C23.7458 5.49999 24 6.10833 24 6.82499C24 7.54166 23.7333 8.15416 23.2 8.66249C22.6667 9.17083 22.0417 9.42499 21.325 9.42499L19.075 21.85H4.95Z" fill="white"/>
</svg>
