<svg width="24" height="24" viewBox="0 0 24 24" fill="none" xmlns="http://www.w3.org/2000/svg">
<path d="M3.15 22.85V17.15C4.5 16.0833 5.55 14.9542 6.3 13.7625C7.05 12.5708 7.58333 11.45 7.9 10.4H7.55C6.75 10.4 6.025 10.0958 5.375 9.48749C4.725 8.87916 4.4 8.13333 4.4 7.24999V1.14999H10.95V3.59999H13.05V1.14999H19.625V7.24999C19.625 8.13333 19.3 8.87916 18.65 9.48749C18 10.0958 17.275 10.4 16.475 10.4H16.1C16.4333 11.45 16.9708 12.5708 17.7125 13.7625C18.4542 14.9542 19.5 16.0833 20.85 17.15V22.85H3.15Z" fill="white"/>
</svg>
