<svg width="24" height="24" viewBox="0 0 24 24" fill="none" xmlns="http://www.w3.org/2000/svg">
<path d="M3.475 22.85C3.35833 21.1833 3.6875 19.6167 4.4625 18.15C5.2375 16.6833 6.35 15.525 7.8 14.675C7.36667 14.1583 7.02917 13.5875 6.7875 12.9625C6.54583 12.3375 6.425 11.6833 6.425 11C6.425 10.1 6.62917 9.24999 7.0375 8.44999C7.44583 7.64999 8.01667 6.98333 8.75 6.44999C8.61667 6.19999 8.51667 5.93333 8.45 5.64999C8.38333 5.36666 8.35 5.08333 8.35 4.79999C8.35 3.78333 8.70833 2.92083 9.425 2.21249C10.1417 1.50416 11.0083 1.14999 12.025 1.14999C13.025 1.14999 13.8792 1.50833 14.5875 2.22499C15.2958 2.94166 15.65 3.79999 15.65 4.79999C15.65 5.08333 15.6167 5.36666 15.55 5.64999C15.4833 5.93333 15.3833 6.19999 15.25 6.44999C15.9833 6.98333 16.5542 7.64999 16.9625 8.44999C17.3708 9.24999 17.575 10.1 17.575 11C17.575 11.6833 17.4583 12.3333 17.225 12.95C16.9917 13.5667 16.6583 14.1333 16.225 14.65C17.675 15.5 18.7875 16.6625 19.5625 18.1375C20.3375 19.6125 20.6667 21.1833 20.55 22.85H3.475Z" fill="white"/>
</svg>
