<svg width="24" height="24" viewBox="0 0 24 24" fill="none" xmlns="http://www.w3.org/2000/svg">
<path d="M2.14999 22.85V19.2C2.14999 18.3167 2.45416 17.5708 3.06249 16.9625C3.67083 16.3542 4.41666 16.05 5.29999 16.05H5.84999L6.34999 12.45H3.14999V9.55H20.85V12.45H17.65L18.15 16.05H18.7C19.5833 16.05 20.3292 16.3542 20.9375 16.9625C21.5458 17.5708 21.85 18.3167 21.85 19.2V22.85H2.14999ZM5.89999 8.05L4.42499 1.15C5.12499 1.66667 5.82499 2.06667 6.52499 2.35C7.22499 2.63333 7.89166 2.775 8.52499 2.775C9.14166 2.775 9.74166 2.6375 10.325 2.3625C10.9083 2.0875 11.4667 1.68333 12 1.15C12.5333 1.68333 13.0917 2.0875 13.675 2.3625C14.2583 2.6375 14.85 2.775 15.45 2.775C16.0833 2.775 16.775 2.62917 17.525 2.3375C18.275 2.04583 19 1.64167 19.7 1.125L18.125 8.05H5.89999Z" fill="white"/>
</svg>
