<svg width="24" height="24" viewBox="0 0 24 24" fill="none" xmlns="http://www.w3.org/2000/svg">
<path d="M4.25 22.85V18.525C4.25 17.925 4.40833 17.3708 4.725 16.8625C5.04167 16.3542 5.46667 15.9667 6 15.7L10.425 13.475V12.875L7.65 14.275C7.4 14.4083 7.15 14.5 6.9 14.55C6.65 14.6 6.39167 14.625 6.125 14.625C5.49167 14.625 4.89583 14.4625 4.3375 14.1375C3.77917 13.8125 3.34167 13.3417 3.025 12.725C2.74167 12.175 2.62083 11.5875 2.6625 10.9625C2.70417 10.3375 2.89167 9.76666 3.225 9.24999L6.225 4.79999L3.775 1.14999H11C13.4333 1.14999 15.5042 2.00833 17.2125 3.72499C18.9208 5.44166 19.775 7.51666 19.775 9.94999V22.85H4.25Z" fill="white"/>
</svg>
