<svg width="24" height="24" viewBox="0 0 24 24" fill="none" xmlns="http://www.w3.org/2000/svg">
<path d="M11.998 22.85C10.4993 22.85 9.09166 22.5667 7.77499 22C6.45833 21.4333 5.30833 20.6583 4.32499 19.675C3.34166 18.6917 2.56666 17.541 1.99999 16.223C1.43333 14.9048 1.14999 13.4965 1.14999 11.998C1.14999 10.4993 1.43333 9.09166 1.99999 7.77499C2.56666 6.45833 3.34166 5.30833 4.32499 4.32499C5.30833 3.34166 6.45899 2.56666 7.77699 1.99999C9.09516 1.43333 10.5035 1.14999 12.002 1.14999C13.5007 1.14999 14.9083 1.43333 16.225 1.99999C17.5417 2.56666 18.6917 3.34166 19.675 4.32499C20.6583 5.30833 21.4333 6.45899 22 7.77699C22.5667 9.09516 22.85 10.5035 22.85 12.002C22.85 13.5007 22.5667 14.9083 22 16.225C21.4333 17.5417 20.6583 18.6917 19.675 19.675C18.6917 20.6583 17.541 21.4333 16.223 22C14.9048 22.5667 13.4965 22.85 11.998 22.85ZM12 19.7C14.1333 19.7 15.95 18.95 17.45 17.45C18.95 15.95 19.7 14.1333 19.7 12H12V4.29999C9.86666 4.29999 8.04999 5.04999 6.54999 6.54999C5.04999 8.04999 4.29999 9.86666 4.29999 12C4.29999 14.1333 5.04999 15.95 6.54999 17.45C8.04999 18.95 9.86666 19.7 12 19.7Z" fill="white"/>
</svg>
