<svg width="24" height="24" viewBox="0 0 24 24" fill="none" xmlns="http://www.w3.org/2000/svg">
<path d="M6.8 22.15V19H10.425V16.925C9.60833 16.6917 8.86666 16.3292 8.2 15.8375C7.53333 15.3458 7.00833 14.725 6.625 13.975C4.975 14.0583 3.575 13.5042 2.425 12.3125C1.275 11.1208 0.699997 9.68334 0.699997 8.00001V7.00001C0.699997 6.11667 1.00416 5.37084 1.6125 4.76251C2.22083 4.15417 2.96666 3.85001 3.85 3.85001H5.85V1.85001H18.15V3.85001H20.15C21.0333 3.85001 21.7792 4.15417 22.3875 4.76251C22.9958 5.37084 23.3 6.11667 23.3 7.00001V8.00001C23.3 9.68334 22.725 11.1208 21.575 12.3125C20.425 13.5042 19.025 14.0583 17.375 13.975C16.9917 14.725 16.4667 15.3458 15.8 15.8375C15.1333 16.3292 14.3917 16.6917 13.575 16.925V19H17.2V22.15H6.8ZM5.85 10.8V7.00001H3.85V8.00001C3.85 8.63334 4.03333 9.20417 4.4 9.71251C4.76666 10.2208 5.25 10.5833 5.85 10.8ZM18.15 10.8C18.75 10.5833 19.2333 10.2208 19.6 9.71251C19.9667 9.20417 20.15 8.63334 20.15 8.00001V7.00001H18.15V10.8Z" fill="white"/>
</svg>
