<svg width="24" height="24" viewBox="0 0 24 24" fill="none" xmlns="http://www.w3.org/2000/svg">
<path d="M3.5 14C3.5 12.1667 3.97083 10.525 4.9125 9.07501C5.85417 7.62501 6.88633 6.38693 8.009 5.36076C9.13183 4.33476 10.161 3.55143 11.0965 3.01076L12.5 2.20001V6.30001C12.5 6.76251 12.6569 7.1281 12.9708 7.39676C13.2844 7.6656 13.6358 7.80001 14.025 7.80001C14.225 7.80001 14.4248 7.75526 14.6245 7.66576C14.824 7.57643 15.0075 7.42951 15.175 7.22501L15.875 6.35001C17.275 7.15001 18.3958 8.23335 19.2375 9.60001C20.0792 10.9667 20.5 12.4333 20.5 14C20.5 15.5233 20.1417 16.9125 19.425 18.1675C18.7083 19.4225 17.7583 20.425 16.575 21.175C16.9135 20.7123 17.1773 20.2062 17.3663 19.6565C17.5554 19.107 17.65 18.5238 17.65 17.9068C17.65 17.1356 17.5087 16.4157 17.2262 15.747C16.9437 15.0782 16.5388 14.4801 16.0115 13.9528L12 10.025L8.025 13.95C7.49167 14.4833 7.07917 15.0848 6.7875 15.7545C6.49583 16.424 6.35 17.1414 6.35 17.9068C6.35 18.5189 6.44458 19.1006 6.63375 19.6518C6.82275 20.2031 7.0865 20.7108 7.425 21.175C6.24167 20.425 5.29167 19.4225 4.575 18.1675C3.85833 16.9125 3.5 15.5233 3.5 14ZM12 14.45L13.7708 16.193C14.0069 16.431 14.1875 16.6932 14.3125 16.9795C14.4375 17.2658 14.5 17.5727 14.5 17.9C14.5 18.5782 14.2563 19.1561 13.769 19.6338C13.2818 20.1113 12.6902 20.35 11.994 20.35C11.298 20.35 10.7083 20.1113 10.225 19.6338C9.74167 19.1561 9.5 18.5782 9.5 17.9C9.5 17.5667 9.56217 17.2567 9.6865 16.97C9.81067 16.6833 9.99017 16.4267 10.225 16.2L12 14.45Z" fill="white"/>
</svg>
