<svg width="24" height="24" viewBox="0 0 24 24" fill="none" xmlns="http://www.w3.org/2000/svg">
<path d="M5.3 21.85C4.41667 21.85 3.67083 21.5458 3.0625 20.9375C2.45417 20.3292 2.15 19.5833 2.15 18.7V5.29999C2.15 4.41666 2.45417 3.67083 3.0625 3.06249C3.67083 2.45416 4.41667 2.14999 5.3 2.14999H18.7C19.5833 2.14999 20.3292 2.45416 20.9375 3.06249C21.5458 3.67083 21.85 4.41666 21.85 5.29999V18.7C21.85 19.5833 21.5458 20.3292 20.9375 20.9375C20.3292 21.5458 19.5833 21.85 18.7 21.85H5.3ZM5.575 17.3H18.425L14.25 11.5L11.25 15.5L9 12.5L5.575 17.3ZM8.5 10.575C9.08333 10.575 9.575 10.375 9.975 9.97499C10.375 9.57499 10.575 9.08333 10.575 8.49999C10.575 7.91666 10.375 7.42499 9.975 7.02499C9.575 6.62499 9.08333 6.42499 8.5 6.42499C7.91667 6.42499 7.425 6.62499 7.025 7.02499C6.625 7.42499 6.425 7.91666 6.425 8.49999C6.425 9.08333 6.625 9.57499 7.025 9.97499C7.425 10.375 7.91667 10.575 8.5 10.575Z" fill="white"/>
</svg>
