<svg width="24" height="24" viewBox="0 0 24 24" fill="none" xmlns="http://www.w3.org/2000/svg">
<g clip-path="url(#clip0_1_107)">
<path d="M12.025 10C12.8583 10 13.5667 9.70834 14.15 9.12501C14.7333 8.54167 15.025 7.83334 15.025 7.00001C15.025 6.16667 14.7333 5.45834 14.15 4.87501C13.5667 4.29167 12.8583 4.00001 12.025 4.00001C11.1917 4.00001 10.4833 4.29167 9.9 4.87501C9.31667 5.45834 9.025 6.16667 9.025 7.00001C9.025 7.83334 9.31667 8.54167 9.9 9.12501C10.4833 9.70834 11.1917 10 12.025 10ZM12.075 24.025L7.875 19.975L10.075 17.575L7.825 15.325L9.65 13.525V13.325C8.3 12.8417 7.22917 12.0167 6.4375 10.85C5.64583 9.68334 5.25 8.40001 5.25 7.00001C5.25 5.13334 5.9125 3.53751 7.2375 2.21251C8.5625 0.887506 10.1583 0.225006 12.025 0.225006C13.9083 0.225006 15.5083 0.883339 16.825 2.20001C18.1417 3.51667 18.8 5.11667 18.8 7.00001C18.8 8.46667 18.3875 9.77917 17.5625 10.9375C16.7375 12.0958 15.6833 12.8833 14.4 13.3V21.6L12.075 24.025Z" fill="white"/>
</g>
<defs>
<clipPath id="clip0_1_107">
<rect width="24" height="24" fill="white"/>
</clipPath>
</defs>
</svg>
