<svg width="24" height="24" viewBox="0 0 24 24" fill="none" xmlns="http://www.w3.org/2000/svg">
<path d="M12 17C13.3833 17 14.5625 16.5125 15.5375 15.5375C16.5125 14.5625 17 13.3833 17 12C17 10.6167 16.5125 9.43749 15.5375 8.46249C14.5625 7.48749 13.3833 6.99999 12 6.99999C10.6167 6.99999 9.43749 7.48749 8.46249 8.46249C7.48749 9.43749 6.99999 10.6167 6.99999 12C6.99999 13.3833 7.48749 14.5625 8.46249 15.5375C9.43749 16.5125 10.6167 17 12 17ZM12 22.85C10.4833 22.85 9.06674 22.566 7.75024 21.998C6.43391 21.4298 5.28883 20.6588 4.31499 19.685C3.34116 18.7112 2.57016 17.5661 2.00199 16.2497C1.43399 14.9332 1.14999 13.5167 1.14999 12C1.14999 10.4833 1.43399 9.06674 2.00199 7.75024C2.57016 6.43391 3.34116 5.28883 4.31499 4.31499C5.28883 3.34116 6.43391 2.57016 7.75024 2.00199C9.06674 1.43399 10.4833 1.14999 12 1.14999C13.5167 1.14999 14.9332 1.43399 16.2497 2.00199C17.5661 2.57016 18.7112 3.34116 19.685 4.31499C20.6588 5.28883 21.4298 6.43391 21.998 7.75024C22.566 9.06674 22.85 10.4833 22.85 12C22.85 13.5167 22.566 14.9332 21.998 16.2497C21.4298 17.5661 20.6588 18.7112 19.685 19.685C18.7112 20.6588 17.5661 21.4298 16.2497 21.998C14.9332 22.566 13.5167 22.85 12 22.85ZM12 19.7C14.1667 19.7 15.9917 18.9583 17.475 17.475C18.9583 15.9917 19.7 14.1667 19.7 12C19.7 9.83333 18.9583 8.00833 17.475 6.52499C15.9917 5.04166 14.1667 4.29999 12 4.29999C9.83333 4.29999 8.00833 5.04166 6.52499 6.52499C5.04166 8.00833 4.29999 9.83333 4.29999 12C4.29999 14.1667 5.04166 15.9917 6.52499 17.475C8.00833 18.9583 9.83333 19.7 12 19.7Z" fill="white"/>
</svg>
