<svg width="24" height="24" viewBox="0 0 24 24" fill="none" xmlns="http://www.w3.org/2000/svg">
<path d="M3.14999 19.85V16.7H4.84999V10.55C4.84999 8.94999 5.31249 7.50833 6.23749 6.22499C7.16249 4.94166 8.39166 4.10833 9.92499 3.72499V3.22499C9.92499 2.64866 10.1267 2.15874 10.5302 1.75524C10.9337 1.35174 11.4237 1.14999 12 1.14999C12.5763 1.14999 13.0662 1.35174 13.4697 1.75524C13.8732 2.15874 14.075 2.64866 14.075 3.22499V3.72499C15.625 4.10833 16.8583 4.93749 17.775 6.21249C18.6917 7.48749 19.15 8.93333 19.15 10.55V16.7H20.85V19.85H3.14999ZM12.025 23.125C11.3925 23.125 10.851 22.9022 10.4005 22.4567C9.95016 22.0112 9.72499 21.4757 9.72499 20.85H14.3C14.3 21.4833 14.0772 22.0208 13.6317 22.4625C13.1862 22.9042 12.6507 23.125 12.025 23.125Z" fill="white"/>
</svg>
