<svg width="24" height="24" viewBox="0 0 24 24" fill="none" xmlns="http://www.w3.org/2000/svg">
<path d="M8.525 22.85L8.075 19.375C7.99167 19.3417 7.90833 19.3 7.825 19.25L7.575 19.1L4.35 20.475L0.85 14.375L3.625 12.275V11.725L0.85 9.62499L4.35 3.57499L7.625 4.92499C7.70833 4.87499 7.78333 4.82916 7.85 4.78749C7.91667 4.74583 7.99167 4.70833 8.075 4.67499L8.525 1.14999H15.475L15.925 4.67499C16.0083 4.70833 16.0917 4.74583 16.175 4.78749C16.2583 4.82916 16.3417 4.87499 16.425 4.92499L19.65 3.57499L23.15 9.62499L20.35 11.725V12C20.35 12.05 20.3458 12.0958 20.3375 12.1375C20.3292 12.1792 20.325 12.225 20.325 12.275L23.125 14.375L19.6 20.475L16.375 19.1C16.2917 19.15 16.2167 19.2 16.15 19.25C16.0833 19.3 16.0083 19.3417 15.925 19.375L15.475 22.85H8.525ZM11.975 15.5C12.9417 15.5 13.7667 15.1583 14.45 14.475C15.1333 13.7917 15.475 12.9667 15.475 12C15.475 11.0333 15.1333 10.2083 14.45 9.52499C13.7667 8.84166 12.9417 8.49999 11.975 8.49999C11.0083 8.49999 10.1833 8.84166 9.5 9.52499C8.81667 10.2083 8.475 11.0333 8.475 12C8.475 12.9667 8.81667 13.7917 9.5 14.475C10.1833 15.1583 11.0083 15.5 11.975 15.5Z" fill="white"/>
</svg>
