<svg width="24" height="24" viewBox="0 0 24 24" fill="none" xmlns="http://www.w3.org/2000/svg">
<path d="M18.725 21.925L16.225 19.425L14.025 21.625L13.5 21.1C12.8833 20.4833 12.575 19.7417 12.575 18.875C12.575 18.0083 12.8833 17.2667 13.5 16.65L16.75 13.4C17.3667 12.7833 18.1083 12.475 18.975 12.475C19.8417 12.475 20.5833 12.7833 21.2 13.4L21.725 13.925L19.525 16.125L22.025 18.625C22.3417 18.9417 22.5 19.3167 22.5 19.75C22.5 20.1833 22.3417 20.5583 22.025 20.875L20.975 21.925C20.6583 22.2417 20.2833 22.4 19.85 22.4C19.4167 22.4 19.0417 22.2417 18.725 21.925ZM22.575 6.15001L11.125 17.575C11.3917 18.1583 11.4708 18.7708 11.3625 19.4125C11.2542 20.0542 10.9583 20.6167 10.475 21.1L9.95 21.625L7.75 19.425L5.25 21.925C4.93334 22.2417 4.55834 22.4 4.125 22.4C3.69167 22.4 3.31667 22.2417 3 21.925L1.95 20.875C1.63334 20.5583 1.475 20.1833 1.475 19.75C1.475 19.3167 1.63334 18.9417 1.95 18.625L4.45 16.125L2.25 13.925L2.775 13.4C3.25834 12.9167 3.825 12.6208 4.475 12.5125C5.125 12.4042 5.74167 12.4917 6.325 12.775L17.75 1.32501H22.575V6.15001ZM6.45 11.2L1.425 6.15001V1.32501H6.25L11.3 6.40001L6.45 11.2Z" fill="white"/>
</svg>
