<svg width="120" height="120" viewBox="0 0 120 120" fill="none" xmlns="http://www.w3.org/2000/svg">
<path d="M24.8516 12.3147C26.3818 12.3147 27.6715 13.3294 28.0928 14.7219H49.7783C50.1996 13.3295 51.4884 12.3147 53.0186 12.3147H66.9814C68.5116 12.3147 69.8004 13.3295 70.2217 14.7219H91.9072C92.3285 13.3294 93.6182 12.3147 95.1484 12.3147H109.111C110.983 12.3148 112.5 13.8319 112.5 15.7034V104.296C112.5 104.354 112.498 104.412 112.495 104.469C112.404 106.261 110.925 107.685 109.111 107.685H10.8887C9.07487 107.685 7.59575 106.261 7.50488 104.469C7.502 104.412 7.5 104.354 7.5 104.296V15.7034L7.50488 15.5295C7.59548 13.7389 9.07552 12.3148 10.8887 12.3147H24.8516Z" fill="#101010" stroke="#101010"/>
<rect x="9.44446" y="16.6667" width="101.111" height="89.0741" rx="1.44444" fill="#450C33"/>
<path d="M80.4629 61.4444C80.4629 64.1316 79.9336 66.7926 78.9053 69.2752C77.8769 71.7579 76.3696 74.0137 74.4695 75.9139C72.5693 77.8141 70.3135 79.3214 67.8308 80.3497C65.3481 81.3781 62.6872 81.9074 59.9999 81.9074C57.3127 81.9074 54.6518 81.3781 52.1691 80.3497C49.6864 79.3214 47.4306 77.8141 45.5304 75.9139C43.6303 74.0137 42.123 71.7579 41.0946 69.2752C40.0663 66.7926 39.537 64.1316 39.537 61.4444L60 61.4444H80.4629Z" fill="#380D31"/>
<rect x="93.7037" y="16.6667" width="2.40741" height="67.4074" transform="rotate(90 93.7037 16.6667)" fill="#380D31"/>
<rect x="93.7037" y="71.074" width="2.40741" height="67.4074" transform="rotate(90 93.7037 71.074)" fill="#380D31"/>
<rect x="93.7037" y="94.6667" width="2.40741" height="67.4074" transform="rotate(90 93.7037 94.6667)" fill="#380D31"/>
<rect x="30.1482" y="69.6296" width="28.8889" height="2.40741" transform="rotate(90 30.1482 69.6296)" fill="#380D31"/>
<rect x="30.1482" y="16.6667" width="36.1111" height="2.40741" transform="rotate(90 30.1482 16.6667)" fill="#380D31"/>
<rect x="50.1296" y="16.6667" width="36.1111" height="0.962961" transform="rotate(90 50.1296 16.6667)" fill="#380D31"/>
<rect x="70.8334" y="16.6667" width="36.1111" height="0.962961" transform="rotate(90 70.8334 16.6667)" fill="#380D31"/>
<rect x="92.2593" y="16.6667" width="36.1111" height="2.40741" transform="rotate(90 92.2593 16.6667)" fill="#380D31"/>
<rect x="92.2593" y="69.6296" width="28.8889" height="2.40741" transform="rotate(90 92.2593 69.6296)" fill="#380D31"/>
<path d="M111.277 97.7959V104.296C111.277 105.492 110.308 106.463 109.111 106.463H10.8888C9.69222 106.463 8.7218 105.492 8.7218 104.296V97.7959H111.277Z" fill="#FFAB07" stroke="#101010" stroke-width="1.44444"/>
<path d="M9.9259 98.5186H110.074V99.963H9.9259V98.5186Z" fill="#FFC350"/>
<path d="M9.9259 104.296H110.074V105.741H9.9259V104.296Z" fill="#C8590F"/>
<rect x="111.278" y="52.0556" width="18.2963" height="102.556" transform="rotate(90 111.278 52.0556)" fill="#FFAB07" stroke="#101010" stroke-width="1.44444"/>
<rect x="110.556" y="52.7778" width="2.40741" height="101.111" transform="rotate(90 110.556 52.7778)" fill="#FFC350"/>
<rect x="110.556" y="67.2222" width="2.40741" height="101.111" transform="rotate(90 110.556 67.2222)" fill="#C8590F"/>
<rect x="8.72224" y="13.5371" width="18.2963" height="92.9259" rx="2.16667" fill="#FFAB07" stroke="#101010" stroke-width="1.44444"/>
<path d="M9.44446 103.333H11.8519H23.8889H26.2963V104.296C26.2963 105.094 25.6496 105.741 24.8519 105.741H10.8889C10.0912 105.741 9.44446 105.094 9.44446 104.296V103.333Z" fill="#C8590F"/>
<path d="M9.44446 15.7037C9.44446 14.906 10.0912 14.2593 10.8889 14.2593H24.8519C25.6496 14.2593 26.2963 14.906 26.2963 15.7037V16.6667H9.44446V15.7037Z" fill="#FFC350"/>
<rect x="92.9815" y="13.5371" width="18.2963" height="92.9259" rx="2.16667" fill="#FFAB07" stroke="#101010" stroke-width="1.44444"/>
<path d="M93.7037 103.333H110.556V104.296C110.556 105.094 109.909 105.741 109.111 105.741H95.1482C94.3504 105.741 93.7037 105.094 93.7037 104.296V103.333Z" fill="#C8590F"/>
<path d="M93.7037 15.7037C93.7037 14.906 94.3504 14.2593 95.1482 14.2593H109.111C109.909 14.2593 110.556 14.906 110.556 15.7037V16.6667H93.7037V15.7037Z" fill="#FFC350"/>
<path d="M66.9813 13.5366C68.1779 13.5366 69.1483 14.507 69.1483 15.7036V50.6108H50.8514V15.7036C50.8515 14.5071 51.8219 13.5367 53.0184 13.5366H66.9813Z" fill="#FFAB07" stroke="#101010" stroke-width="1.44444"/>
<path d="M51.5741 15.7037C51.5741 14.906 52.2208 14.2593 53.0185 14.2593H66.9815C67.7793 14.2593 68.4259 14.906 68.4259 15.7037V16.6667H51.5741V15.7037Z" fill="#FFC350"/>
<rect x="42.426" y="43.6296" width="35.1481" height="35.1481" rx="17.5741" fill="#FFAB07" stroke="#101010" stroke-width="1.44444"/>
<path d="M59.9998 44.3518C69.3067 44.3518 76.8521 51.8965 76.8523 61.2034C76.8523 62.0209 76.7929 62.8251 76.6804 63.6116H43.3201C43.2075 62.8251 43.1482 62.021 43.1482 61.2034C43.1484 51.8966 50.693 44.352 59.9998 44.3518Z" fill="#FFC350"/>
<rect x="47.2408" y="48.4445" width="25.5185" height="25.5185" rx="12.7593" fill="#450C33" stroke="#380D31" stroke-width="1.44444"/>
<rect x="47.963" y="49.1667" width="24.0741" height="24.0741" rx="12.037" fill="#450C33"/>
<rect x="51.5741" y="53.2593" width="16.8519" height="16.8519" rx="8.42593" fill="#C8590F"/>
<rect x="51.5741" y="52.2964" width="16.8519" height="16.8519" rx="8.42593" fill="#FFAB07"/>
</svg>
