<svg width="106" height="106" viewBox="0 0 106 106" fill="none" xmlns="http://www.w3.org/2000/svg">
<circle cx="53" cy="53" r="53" fill="#101010"/>
<circle cx="53" cy="53" r="50" fill="#C8590F"/>
<mask id="path-3-outside-1_208_2860" maskUnits="userSpaceOnUse" x="1.06152" y="2" width="103" height="97" fill="black">
<rect fill="white" x="1.06152" y="2" width="103" height="97"/>
<path d="M53 3C79.7759 3 101.635 24.0472 102.938 50.5C101.635 76.9528 79.7759 98 53 98C26.2241 98 4.3641 76.9528 3.06152 50.5C4.3641 24.0472 26.2241 3 53 3Z"/>
</mask>
<path d="M53 3C79.7759 3 101.635 24.0472 102.938 50.5C101.635 76.9528 79.7759 98 53 98C26.2241 98 4.3641 76.9528 3.06152 50.5C4.3641 24.0472 26.2241 3 53 3Z" fill="url(#paint0_linear_208_2860)"/>
<path d="M102.938 50.5L103.936 50.5492L103.939 50.5L103.936 50.4508L102.938 50.5ZM3.06152 50.5L2.06273 50.4508L2.06031 50.5L2.06273 50.5492L3.06152 50.5ZM53 3V4C79.2401 4 100.662 24.6263 101.939 50.5492L102.938 50.5L103.936 50.4508C102.608 23.4682 80.3117 2 53 2V3ZM102.938 50.5L101.939 50.4508C100.662 76.3737 79.2401 97 53 97V98V99C80.3117 99 102.608 77.5318 103.936 50.5492L102.938 50.5ZM53 98V97C26.7599 97 5.3368 76.3737 4.06031 50.4508L3.06152 50.5L2.06273 50.5492C3.39141 77.5318 25.6883 99 53 99V98ZM3.06152 50.5L4.06031 50.5492C5.3368 24.6263 26.7599 4 53 4V3V2C25.6883 2 3.39141 23.4682 2.06273 50.4508L3.06152 50.5Z" fill="black" fill-opacity="0.1" mask="url(#path-3-outside-1_208_2860)"/>
<path d="M101.296 60.941C99.5969 67.2833 96.6648 73.2288 92.6677 78.4381C88.6705 83.6473 83.6864 88.0182 78 91.3013L53 48L101.296 60.941Z" fill="#FFC350"/>
<circle cx="53" cy="50" r="35" fill="#C8590F"/>
<mask id="path-7-inside-2_208_2860" fill="white">
<path d="M53 17C71.9955 17 87.455 32.1325 87.9844 51C87.455 69.8675 71.9955 85 53 85C34.0045 85 18.544 69.8675 18.0146 51C18.544 32.1325 34.0045 17 53 17Z"/>
</mask>
<path d="M53 17C71.9955 17 87.455 32.1325 87.9844 51C87.455 69.8675 71.9955 85 53 85C34.0045 85 18.544 69.8675 18.0146 51C18.544 32.1325 34.0045 17 53 17Z" fill="#450C33"/>
<path d="M87.9844 51L89.9836 51.0561L89.9852 51L89.9836 50.9439L87.9844 51ZM18.0146 51L16.0154 50.9439L16.0139 51L16.0154 51.0561L18.0146 51ZM53 17V19C70.9096 19 85.4861 33.2677 85.9852 51.0561L87.9844 51L89.9836 50.9439C89.424 30.9973 73.0814 15 53 15V17ZM87.9844 51L85.9852 50.9439C85.4861 68.7323 70.9096 83 53 83V85V87C73.0814 87 89.424 71.0027 89.9836 51.0561L87.9844 51ZM53 85V83C35.0903 83 20.5129 68.7322 20.0139 50.9439L18.0146 51L16.0154 51.0561C16.5751 71.0028 32.9187 87 53 87V85ZM18.0146 51L20.0139 51.0561C20.5129 33.2678 35.0903 19 53 19V17V15C32.9187 15 16.5751 30.9972 16.0154 50.9439L18.0146 51Z" fill="#1A112C" fill-opacity="0.3" mask="url(#path-7-inside-2_208_2860)"/>
<path d="M33.7626 66.0995C35.1568 64.7054 37.4184 64.7063 38.8132 66.0995C39.0751 66.3614 39.2906 66.6546 39.4541 66.9662C39.5081 67.069 39.5573 67.1739 39.6006 67.2805C39.9495 68.1404 39.9491 69.1091 39.6006 69.9691C39.4263 70.3996 39.1623 70.8041 38.8132 71.1532C38.1161 71.8496 37.2028 72.1969 36.2894 72.1969C36.1754 72.1969 36.0612 72.1925 35.9476 72.1816C35.1505 72.1054 34.3729 71.7605 33.7626 71.1501C32.3693 69.7553 32.3684 67.4937 33.7626 66.0995ZM67.1701 66.0995C68.5645 64.7053 70.826 64.7059 72.2208 66.0995C73.6154 67.4942 73.6154 69.7554 72.2208 71.1501C71.6975 71.6734 71.0533 72.0022 70.3775 72.1328C70.153 72.1762 69.9249 72.1969 69.697 72.1969C69.1258 72.197 68.5552 72.0602 68.0368 71.788C67.8293 71.679 67.629 71.55 67.4418 71.3973C67.3482 71.3211 67.2573 71.2373 67.1701 71.1501C65.951 69.9299 65.7978 68.0468 66.7124 66.661C66.8432 66.4627 66.9956 66.2741 67.1701 66.0995ZM45.1243 59.7854L50.181 64.8361L47.6542 67.3629L45.1273 64.8391L42.6035 67.3629L37.5528 62.3123L40.0766 59.7885L37.5528 57.2616L40.0766 54.7378L45.1243 59.7854ZM68.4336 57.2616L65.9098 59.7885L68.4336 62.3123L63.3829 67.3629L60.8561 64.8391L58.3323 67.3629L55.8054 64.8391L65.9098 54.7378L68.4336 57.2616ZM69.6238 45.3933L59.6476 52.8732L61.6159 55.4946L56.5653 60.5453L52.9917 57.8658L49.4211 60.5453L44.3705 55.4946L46.3327 52.8732L36.3596 45.3933L33.8358 32.7651L46.464 35.292L52.9917 43.9956L59.5224 35.292L72.1506 32.7651L69.6238 45.3933Z" fill="#C8590F"/>
<path d="M33.7626 64.0995C35.1568 62.7054 37.4184 62.7063 38.8132 64.0995C39.0751 64.3614 39.2906 64.6546 39.4541 64.9662C39.5081 65.069 39.5573 65.1739 39.6006 65.2805C39.9495 66.1404 39.9491 67.1091 39.6006 67.9691C39.4263 68.3996 39.1623 68.8041 38.8132 69.1532C38.1161 69.8496 37.2028 70.1969 36.2894 70.1969C36.1754 70.1969 36.0612 70.1925 35.9476 70.1816C35.1505 70.1054 34.3729 69.7605 33.7626 69.1501C32.3693 67.7553 32.3684 65.4937 33.7626 64.0995ZM67.1701 64.0995C68.5645 62.7053 70.826 62.7059 72.2208 64.0995C73.6154 65.4942 73.6154 67.7554 72.2208 69.1501C71.6975 69.6734 71.0533 70.0022 70.3775 70.1328C70.153 70.1762 69.9249 70.1969 69.697 70.1969C69.1258 70.197 68.5552 70.0602 68.0368 69.788C67.8293 69.679 67.629 69.55 67.4418 69.3973C67.3482 69.3211 67.2573 69.2373 67.1701 69.1501C65.951 67.9299 65.7978 66.0468 66.7124 64.661C66.8432 64.4627 66.9956 64.2741 67.1701 64.0995ZM45.1243 57.7854L50.181 62.8361L47.6542 65.3629L45.1273 62.8391L42.6035 65.3629L37.5528 60.3123L40.0766 57.7885L37.5528 55.2616L40.0766 52.7378L45.1243 57.7854ZM68.4336 55.2616L65.9098 57.7885L68.4336 60.3123L63.3829 65.3629L60.8561 62.8391L58.3323 65.3629L55.8054 62.8391L65.9098 52.7378L68.4336 55.2616ZM69.6238 43.3933L59.6476 50.8732L61.6159 53.4946L56.5653 58.5453L52.9917 55.8658L49.4211 58.5453L44.3705 53.4946L46.3327 50.8732L36.3596 43.3933L33.8358 30.7651L46.464 33.292L52.9917 41.9956L59.5224 33.292L72.1506 30.7651L69.6238 43.3933Z" fill="#FFB414"/>
<defs>
<linearGradient id="paint0_linear_208_2860" x1="2.99903" y1="3" x2="102.999" y2="103.001" gradientUnits="userSpaceOnUse">
<stop stop-color="#FFB516"/>
<stop offset="1" stop-color="#FFA600"/>
</linearGradient>
</defs>
</svg>
