<svg width="120" height="120" viewBox="0 0 120 120" fill="none" xmlns="http://www.w3.org/2000/svg">
<circle cx="38.382" cy="75.7752" r="30.382" fill="#101010"/>
<circle cx="38.382" cy="75.7752" r="29.2135" fill="#C8590F"/>
<mask id="path-3-outside-1_314_2977" maskUnits="userSpaceOnUse" x="8.20449" y="45.5617" width="60" height="58" fill="black">
<rect fill="white" x="8.20449" y="45.5617" width="60" height="58"/>
<path d="M38.3822 46.5617C54.0265 46.5618 66.797 58.8591 67.558 74.3146C66.7969 89.77 54.0264 102.067 38.3822 102.068C22.7379 102.068 9.96559 89.7701 9.20449 74.3146C9.9655 58.859 22.7378 46.5617 38.3822 46.5617Z"/>
</mask>
<path d="M38.3822 46.5617C54.0265 46.5618 66.797 58.8591 67.558 74.3146C66.7969 89.77 54.0264 102.067 38.3822 102.068C22.7379 102.068 9.96559 89.7701 9.20449 74.3146C9.9655 58.859 22.7378 46.5617 38.3822 46.5617Z" fill="url(#paint0_linear_314_2977)"/>
<path d="M38.3822 46.5617L38.3822 45.9774H38.3822V46.5617ZM67.558 74.3146L68.1416 74.3434L68.143 74.3146L68.1416 74.2859L67.558 74.3146ZM38.3822 102.068L38.3822 102.652L38.3822 102.652L38.3822 102.068ZM9.20449 74.3146L8.62092 74.2859L8.61951 74.3146L8.62092 74.3434L9.20449 74.3146ZM38.3822 46.5617L38.3822 47.146C53.7134 47.1461 66.2286 59.1974 66.9744 74.3434L67.558 74.3146L68.1416 74.2859C67.3653 58.5209 54.3396 45.9775 38.3822 45.9774L38.3822 46.5617ZM67.558 74.3146L66.9744 74.2859C66.2285 89.4318 53.7133 101.483 38.3822 101.483L38.3822 102.068L38.3822 102.652C54.3395 102.652 67.3652 90.1083 68.1416 74.3434L67.558 74.3146ZM38.3822 102.068V101.483C23.051 101.483 10.5339 89.4318 9.78805 74.2859L9.20449 74.3146L8.62092 74.3434C9.39727 90.1085 22.4248 102.652 38.3822 102.652V102.068ZM9.20449 74.3146L9.78805 74.3434C10.5338 59.1974 23.0509 47.146 38.3822 47.146V46.5617V45.9774C22.4248 45.9774 9.39718 58.5207 8.62092 74.2859L9.20449 74.3146Z" fill="black" fill-opacity="0.1" mask="url(#path-3-outside-1_314_2977)"/>
<path d="M66.6001 80.4149C65.6072 84.1205 63.8941 87.5943 61.5586 90.6379C59.2232 93.6815 56.3112 96.2353 52.9888 98.1535L38.382 72.8539L66.6001 80.4149Z" fill="#FFC350"/>
<circle cx="38.382" cy="74.0224" r="20.4494" fill="#C8590F"/>
<mask id="path-7-inside-2_314_2977" fill="white">
<path d="M38.3816 54.7415C49.4801 54.7415 58.5127 63.583 58.822 74.6068C58.5127 85.6304 49.48 94.472 38.3816 94.472C27.2833 94.4717 18.2505 85.6303 17.9411 74.6068C18.2504 63.5831 27.2833 54.7418 38.3816 54.7415Z"/>
</mask>
<path d="M38.3816 54.7415C49.4801 54.7415 58.5127 63.583 58.822 74.6068C58.5127 85.6304 49.48 94.472 38.3816 94.472C27.2833 94.4717 18.2505 85.6303 17.9411 74.6068C18.2504 63.5831 27.2833 54.7418 38.3816 54.7415Z" fill="#450C33"/>
<path d="M38.3816 54.7415L38.3816 53.573L38.3815 53.573L38.3816 54.7415ZM58.822 74.6068L59.9901 74.6395L59.991 74.6068L59.9901 74.574L58.822 74.6068ZM38.3816 94.472L38.3815 95.6405H38.3816V94.472ZM17.9411 74.6068L16.7731 74.574L16.7721 74.6068L16.7731 74.6395L17.9411 74.6068ZM38.3816 54.7415V55.9101C48.8456 55.9101 57.3624 64.2463 57.6539 74.6395L58.822 74.6068L59.9901 74.574C59.6631 62.9197 50.1145 53.573 38.3816 53.573V54.7415ZM58.822 74.6068L57.6539 74.574C57.3623 84.9672 48.8456 93.3034 38.3816 93.3034V94.472V95.6405C50.1145 95.6405 59.6631 86.2937 59.9901 74.6395L58.822 74.6068ZM38.3816 94.472L38.3816 93.3034C27.9177 93.3032 19.4008 84.967 19.1092 74.574L17.9411 74.6068L16.7731 74.6395C17.1001 86.2936 26.6489 95.6403 38.3815 95.6405L38.3816 94.472ZM17.9411 74.6068L19.1092 74.6395C19.4008 64.2464 27.9177 55.9103 38.3816 55.9101L38.3816 54.7415L38.3815 53.573C26.6488 53.5732 17.1 62.9198 16.7731 74.574L17.9411 74.6068Z" fill="#1A112C" fill-opacity="0.3" mask="url(#path-7-inside-2_314_2977)"/>
<path d="M27.1422 83.4288C27.9568 82.6142 29.2782 82.6148 30.0931 83.4288C30.2461 83.5818 30.372 83.7531 30.4676 83.9351C30.4991 83.9952 30.5279 84.0565 30.5531 84.1188C30.757 84.6212 30.7568 85.1872 30.5531 85.6897C30.4513 85.9412 30.2971 86.1775 30.0931 86.3815C29.6858 86.7884 29.1522 86.9913 28.6185 86.9913C28.5519 86.9913 28.4852 86.9887 28.4188 86.9824C27.9531 86.9379 27.4988 86.7363 27.1422 86.3797C26.3282 85.5648 26.3276 84.2434 27.1422 83.4288ZM46.6612 83.4288C47.4759 82.6142 48.7972 82.6145 49.6122 83.4288C50.427 84.2436 50.427 85.5648 49.6122 86.3797C49.3064 86.6855 48.93 86.8775 48.5352 86.9539C48.404 86.9792 48.2707 86.9913 48.1376 86.9913C47.8038 86.9914 47.4705 86.9114 47.1676 86.7524C47.0463 86.6887 46.9293 86.6133 46.8199 86.5241C46.7653 86.4796 46.7121 86.4306 46.6612 86.3797C45.9489 85.6668 45.8594 84.5665 46.3938 83.7568C46.4702 83.641 46.5592 83.5308 46.6612 83.4288ZM33.7805 79.7396L36.735 82.6906L35.2586 84.1669L33.7822 82.6924L32.3077 84.1669L29.3567 81.216L30.8313 79.7414L29.3567 78.2651L30.8313 76.7905L33.7805 79.7396ZM47.3994 78.2651L45.9248 79.7414L47.3994 81.216L44.4484 84.1669L42.9721 82.6924L41.4975 84.1669L40.0211 82.6924L45.9248 76.7905L47.3994 78.2651ZM48.0948 71.3308L42.266 75.701L43.4161 77.2327L40.4651 80.1836L38.3772 78.6181L36.291 80.1836L33.3401 77.2327L34.4866 75.701L28.6595 71.3308L27.185 63.9525L34.5632 65.4289L38.3772 70.5141L42.1929 65.4289L49.5711 63.9525L48.0948 71.3308Z" fill="#C8590F"/>
<path d="M27.1422 82.2602C27.9568 81.4457 29.2782 81.4462 30.0931 82.2602C30.2461 82.4133 30.372 82.5846 30.4676 82.7666C30.4991 82.8267 30.5279 82.888 30.5531 82.9503C30.757 83.4527 30.7568 84.0187 30.5531 84.5212C30.4513 84.7727 30.2971 85.009 30.0931 85.213C29.6858 85.6198 29.1522 85.8228 28.6185 85.8228C28.5519 85.8228 28.4852 85.8202 28.4188 85.8139C27.9531 85.7693 27.4988 85.5678 27.1422 85.2112C26.3282 84.3962 26.3276 83.0749 27.1422 82.2602ZM46.6612 82.2602C47.4759 81.4456 48.7972 81.446 49.6122 82.2602C50.427 83.0751 50.427 84.3963 49.6122 85.2112C49.3064 85.5169 48.93 85.709 48.5352 85.7853C48.404 85.8107 48.2707 85.8228 48.1376 85.8228C47.8038 85.8229 47.4705 85.7429 47.1676 85.5838C47.0463 85.5202 46.9293 85.4448 46.8199 85.3556C46.7653 85.3111 46.7121 85.2621 46.6612 85.2112C45.9489 84.4983 45.8594 83.398 46.3938 82.5883C46.4702 82.4725 46.5592 82.3622 46.6612 82.2602ZM33.7805 78.5711L36.735 81.5221L35.2586 82.9984L33.7822 81.5238L32.3077 82.9984L29.3567 80.0475L30.8313 78.5729L29.3567 77.0965L30.8313 75.622L33.7805 78.5711ZM47.3994 77.0965L45.9248 78.5729L47.3994 80.0475L44.4484 82.9984L42.9721 81.5238L41.4975 82.9984L40.0211 81.5238L45.9248 75.622L47.3994 77.0965ZM48.0948 70.1623L42.266 74.5325L43.4161 76.0641L40.4651 79.0151L38.3772 77.4496L36.291 79.0151L33.3401 76.0641L34.4866 74.5325L28.6595 70.1623L27.185 62.784L34.5632 64.2604L38.3772 69.3456L42.1929 64.2604L49.5711 62.784L48.0948 70.1623Z" fill="#FFB414"/>
<circle cx="81.618" cy="75.7751" r="30.382" fill="#101010"/>
<circle cx="81.618" cy="75.7751" r="29.2135" fill="#C8590F"/>
<mask id="path-13-outside-3_314_2977" maskUnits="userSpaceOnUse" x="51.4404" y="45.5616" width="60" height="58" fill="black">
<rect fill="white" x="51.4404" y="45.5616" width="60" height="58"/>
<path d="M81.6182 46.5616C97.2625 46.5617 110.033 58.8591 110.794 74.3146C110.033 89.77 97.2624 102.067 81.6182 102.068C65.9738 102.068 53.2015 89.7701 52.4404 74.3146C53.2015 58.859 65.9738 46.5616 81.6182 46.5616Z"/>
</mask>
<path d="M81.6182 46.5616C97.2625 46.5617 110.033 58.8591 110.794 74.3146C110.033 89.77 97.2624 102.067 81.6182 102.068C65.9738 102.068 53.2015 89.7701 52.4404 74.3146C53.2015 58.859 65.9738 46.5616 81.6182 46.5616Z" fill="url(#paint1_linear_314_2977)"/>
<path d="M81.6182 46.5616L81.6182 45.9774H81.6182V46.5616ZM110.794 74.3146L111.378 74.3433L111.379 74.3146L111.378 74.2858L110.794 74.3146ZM81.6182 102.068L81.6182 102.652L81.6182 102.652L81.6182 102.068ZM52.4404 74.3146L51.8569 74.2858L51.8555 74.3146L51.8569 74.3433L52.4404 74.3146ZM81.6182 46.5616L81.6182 47.1459C96.9493 47.146 109.465 59.1974 110.21 74.3433L110.794 74.3146L111.378 74.2858C110.601 58.5208 97.5756 45.9775 81.6182 45.9774L81.6182 46.5616ZM110.794 74.3146L110.21 74.2858C109.464 89.4317 96.9493 101.483 81.6182 101.483L81.6182 102.068L81.6182 102.652C97.5755 102.652 110.601 90.1083 111.378 74.3433L110.794 74.3146ZM81.6182 102.068V101.483C66.2869 101.483 53.7699 89.4318 53.024 74.2858L52.4404 74.3146L51.8569 74.3433C52.6332 90.1084 65.6608 102.652 81.6182 102.652V102.068ZM52.4404 74.3146L53.024 74.3433C53.7698 59.1973 66.2868 47.1459 81.6182 47.1459V46.5616V45.9774C65.6607 45.9774 52.6331 58.5207 51.8569 74.2858L52.4404 74.3146Z" fill="black" fill-opacity="0.1" mask="url(#path-13-outside-3_314_2977)"/>
<path d="M109.836 80.4148C108.843 84.1205 107.13 87.5943 104.795 90.6378C102.459 93.6814 99.5471 96.2352 96.2247 98.1534L81.618 72.8538L109.836 80.4148Z" fill="#FFC350"/>
<circle cx="81.618" cy="74.0224" r="20.4494" fill="#C8590F"/>
<mask id="path-17-inside-4_314_2977" fill="white">
<path d="M81.6175 54.7415C92.716 54.7415 101.749 63.583 102.058 74.6067C101.749 85.6304 92.716 94.4719 81.6175 94.4719C70.5193 94.4717 61.4864 85.6302 61.1771 74.6067C61.4863 63.5831 70.5192 54.7417 81.6175 54.7415Z"/>
</mask>
<path d="M81.6175 54.7415C92.716 54.7415 101.749 63.583 102.058 74.6067C101.749 85.6304 92.716 94.4719 81.6175 94.4719C70.5193 94.4717 61.4864 85.6302 61.1771 74.6067C61.4863 63.5831 70.5192 54.7417 81.6175 54.7415Z" fill="#450C33"/>
<path d="M81.6175 54.7415L81.6175 53.5729L81.6175 53.5729L81.6175 54.7415ZM102.058 74.6067L103.226 74.6395L103.227 74.6067L103.226 74.5739L102.058 74.6067ZM81.6175 94.4719L81.6175 95.6405H81.6175V94.4719ZM61.1771 74.6067L60.009 74.5739L60.0081 74.6067L60.009 74.6395L61.1771 74.6067ZM81.6175 54.7415V55.91C92.0816 55.91 100.598 64.2462 100.89 74.6395L102.058 74.6067L103.226 74.5739C102.899 62.9197 93.3505 53.5729 81.6175 53.5729V54.7415ZM102.058 74.6067L100.89 74.5739C100.598 84.9671 92.0815 93.3034 81.6175 93.3034V94.4719V95.6405C93.3505 95.6405 102.899 86.2936 103.226 74.6395L102.058 74.6067ZM81.6175 94.4719L81.6176 93.3034C71.1537 93.3032 62.6368 84.9669 62.3452 74.5739L61.1771 74.6067L60.009 74.6395C60.336 86.2935 69.8848 95.6402 81.6175 95.6405L81.6175 94.4719ZM61.1771 74.6067L62.3452 74.6395C62.6367 64.2464 71.1536 55.9102 81.6176 55.91L81.6175 54.7415L81.6175 53.5729C69.8848 53.5732 60.3359 62.9198 60.009 74.5739L61.1771 74.6067Z" fill="#1A112C" fill-opacity="0.3" mask="url(#path-17-inside-4_314_2977)"/>
<path d="M70.3781 83.4287C71.1927 82.6142 72.5141 82.6147 73.3291 83.4287C73.4821 83.5817 73.608 83.7531 73.7035 83.9351C73.7351 83.9952 73.7638 84.0565 73.7891 84.1187C73.993 84.6211 73.9927 85.1871 73.7891 85.6896C73.6873 85.9412 73.533 86.1775 73.3291 86.3814C72.9217 86.7883 72.3882 86.9913 71.8545 86.9912C71.7879 86.9912 71.7212 86.9887 71.6548 86.9823C71.1891 86.9378 70.7347 86.7363 70.3781 86.3796C69.5641 85.5647 69.5636 84.2433 70.3781 83.4287ZM89.8972 83.4287C90.7119 82.6141 92.0332 82.6145 92.8481 83.4287C93.6629 84.2436 93.6629 85.5648 92.8481 86.3796C92.5424 86.6854 92.166 86.8775 91.7711 86.9538C91.64 86.9791 91.5067 86.9912 91.3735 86.9912C91.0398 86.9913 90.7064 86.9114 90.4036 86.7523C90.2823 86.6886 90.1652 86.6132 90.0559 86.5241C90.0012 86.4795 89.9481 86.4306 89.8972 86.3796C89.1848 85.6667 89.0954 84.5665 89.6297 83.7568C89.7062 83.6409 89.7952 83.5307 89.8972 83.4287ZM77.0164 79.7396L79.9709 82.6905L78.4946 84.1669L77.0182 82.6923L75.5436 84.1669L72.5927 81.2159L74.0673 79.7414L72.5927 78.265L74.0673 76.7904L77.0164 79.7396ZM90.6353 78.265L89.1608 79.7414L90.6353 81.2159L87.6844 84.1669L86.208 82.6923L84.7335 84.1669L83.2571 82.6923L89.1608 76.7904L90.6353 78.265ZM91.3307 71.3307L85.5019 75.701L86.652 77.2326L83.7011 80.1836L81.6131 78.618L79.527 80.1836L76.576 77.2326L77.7225 75.701L71.8955 71.3307L70.4209 63.9525L77.7992 65.4288L81.6131 70.5141L85.4288 65.4288L92.8071 63.9525L91.3307 71.3307Z" fill="#C8590F"/>
<path d="M70.3781 82.2602C71.1927 81.4456 72.5141 81.4462 73.3291 82.2602C73.4821 82.4132 73.608 82.5845 73.7035 82.7666C73.7351 82.8267 73.7638 82.8879 73.7891 82.9502C73.993 83.4526 73.9927 84.0186 73.7891 84.5211C73.6873 84.7726 73.533 85.0089 73.3291 85.2129C72.9217 85.6198 72.3882 85.8227 71.8545 85.8227C71.7879 85.8227 71.7212 85.8201 71.6548 85.8138C71.1891 85.7693 70.7347 85.5677 70.3781 85.2111C69.5641 84.3962 69.5636 83.0748 70.3781 82.2602ZM89.8972 82.2602C90.7119 81.4456 92.0332 81.446 92.8481 82.2602C93.6629 83.0751 93.6629 84.3962 92.8481 85.2111C92.5424 85.5169 92.166 85.7089 91.7711 85.7853C91.64 85.8106 91.5067 85.8227 91.3735 85.8227C91.0398 85.8228 90.7064 85.7428 90.4036 85.5838C90.2823 85.5201 90.1652 85.4447 90.0559 85.3556C90.0012 85.311 89.9481 85.2621 89.8972 85.2111C89.1848 84.4982 89.0954 83.3979 89.6297 82.5883C89.7062 82.4724 89.7952 82.3622 89.8972 82.2602ZM77.0164 78.5711L79.9709 81.522L78.4946 82.9984L77.0182 81.5238L75.5436 82.9984L72.5927 80.0474L74.0673 78.5728L72.5927 77.0965L74.0673 75.6219L77.0164 78.5711ZM90.6353 77.0965L89.1608 78.5728L90.6353 80.0474L87.6844 82.9984L86.208 81.5238L84.7335 82.9984L83.2571 81.5238L89.1608 75.6219L90.6353 77.0965ZM91.3307 70.1622L85.5019 74.5324L86.652 76.0641L83.7011 79.015L81.6131 77.4495L79.527 79.015L76.576 76.0641L77.7225 74.5324L71.8955 70.1622L70.4209 62.7839L77.7992 64.2603L81.6131 69.3456L85.4288 64.2603L92.8071 62.7839L91.3307 70.1622Z" fill="#FFB414"/>
<circle cx="58.8315" cy="44.2249" r="30.382" fill="#101010"/>
<circle cx="58.8315" cy="44.2249" r="29.2135" fill="#C8590F"/>
<mask id="path-23-outside-5_314_2977" maskUnits="userSpaceOnUse" x="28.6539" y="14.0114" width="60" height="58" fill="black">
<rect fill="white" x="28.6539" y="14.0114" width="60" height="58"/>
<path d="M58.8317 15.0114C74.4759 15.0115 87.2464 27.3088 88.0074 42.7643C87.2463 58.2197 74.4759 70.5172 58.8317 70.5173C43.1873 70.5173 30.415 58.2198 29.6539 42.7643C30.4149 27.3087 43.1873 15.0114 58.8317 15.0114Z"/>
</mask>
<path d="M58.8317 15.0114C74.4759 15.0115 87.2464 27.3088 88.0074 42.7643C87.2463 58.2197 74.4759 70.5172 58.8317 70.5173C43.1873 70.5173 30.415 58.2198 29.6539 42.7643C30.4149 27.3087 43.1873 15.0114 58.8317 15.0114Z" fill="url(#paint2_linear_314_2977)"/>
<path d="M58.8317 15.0114L58.8317 14.4271H58.8317V15.0114ZM88.0074 42.7643L88.591 42.7931L88.5924 42.7643L88.591 42.7356L88.0074 42.7643ZM58.8317 70.5173L58.8317 71.1015L58.8317 71.1015L58.8317 70.5173ZM29.6539 42.7643L29.0704 42.7356L29.0689 42.7643L29.0704 42.7931L29.6539 42.7643ZM58.8317 15.0114L58.8317 15.5957C74.1628 15.5958 86.6781 27.6471 87.4239 42.7931L88.0074 42.7643L88.591 42.7356C87.8147 26.9706 74.789 14.4272 58.8317 14.4271L58.8317 15.0114ZM88.0074 42.7643L87.4239 42.7356C86.678 57.8815 74.1628 69.9329 58.8317 69.933L58.8317 70.5173L58.8317 71.1015C74.789 71.1014 87.8146 58.558 88.591 42.7931L88.0074 42.7643ZM58.8317 70.5173V69.933C43.5004 69.933 30.9834 57.8815 30.2375 42.7356L29.6539 42.7643L29.0704 42.7931C29.8467 58.5582 42.8743 71.1015 58.8317 71.1015V70.5173ZM29.6539 42.7643L30.2375 42.7931C30.9832 27.6471 43.5003 15.5957 58.8317 15.5957V15.0114V14.4271C42.8742 14.4271 29.8466 26.9704 29.0704 42.7356L29.6539 42.7643Z" fill="black" fill-opacity="0.1" mask="url(#path-23-outside-5_314_2977)"/>
<path d="M87.0495 48.8646C86.0566 52.5702 84.3435 56.044 82.0081 59.0876C79.6726 62.1312 76.7606 64.685 73.4382 66.6032L58.8315 41.3036L87.0495 48.8646Z" fill="#FFC350"/>
<circle cx="58.8315" cy="42.4721" r="20.4494" fill="#C8590F"/>
<mask id="path-27-inside-6_314_2977" fill="white">
<path d="M58.831 23.1912C69.9295 23.1912 78.9622 32.0327 79.2714 43.0565C78.9621 54.0801 69.9295 62.9217 58.831 62.9217C47.7327 62.9215 38.6999 54.08 38.3906 43.0565C38.6998 32.0328 47.7327 23.1915 58.831 23.1912Z"/>
</mask>
<path d="M58.831 23.1912C69.9295 23.1912 78.9622 32.0327 79.2714 43.0565C78.9621 54.0801 69.9295 62.9217 58.831 62.9217C47.7327 62.9215 38.6999 54.08 38.3906 43.0565C38.6998 32.0328 47.7327 23.1915 58.831 23.1912Z" fill="#450C33"/>
<path d="M58.831 23.1912L58.831 22.0227L58.831 22.0227L58.831 23.1912ZM79.2714 43.0565L80.4395 43.0892L80.4404 43.0565L80.4395 43.0237L79.2714 43.0565ZM58.831 62.9217L58.831 64.0902H58.831V62.9217ZM38.3906 43.0565L37.2225 43.0237L37.2216 43.0565L37.2225 43.0892L38.3906 43.0565ZM58.831 23.1912V24.3598C69.2951 24.3598 77.8118 32.696 78.1034 43.0892L79.2714 43.0565L80.4395 43.0237C80.1126 31.3694 70.564 22.0227 58.831 22.0227V23.1912ZM79.2714 43.0565L78.1034 43.0237C77.8117 53.4169 69.295 61.7532 58.831 61.7532V62.9217V64.0902C70.5639 64.0902 80.1125 54.7434 80.4395 43.0892L79.2714 43.0565ZM58.831 62.9217L58.831 61.7532C48.3672 61.7529 39.8503 53.4167 39.5587 43.0237L38.3906 43.0565L37.2225 43.0892C37.5495 54.7433 47.0983 64.09 58.831 64.0902L58.831 62.9217ZM38.3906 43.0565L39.5587 43.0892C39.8502 32.6961 48.3671 24.36 58.831 24.3598L58.831 23.1912L58.831 22.0227C47.0983 22.0229 37.5494 31.3695 37.2225 43.0237L38.3906 43.0565Z" fill="#1A112C" fill-opacity="0.3" mask="url(#path-27-inside-6_314_2977)"/>
<path d="M47.5916 51.8786C48.4062 51.064 49.7276 51.0646 50.5426 51.8786C50.6956 52.0316 50.8214 52.2029 50.917 52.385C50.9485 52.4451 50.9773 52.5063 51.0026 52.5686C51.2065 53.071 51.2062 53.637 51.0026 54.1395C50.9007 54.391 50.7465 54.6273 50.5426 54.8313C50.1352 55.2382 49.6016 55.4412 49.068 55.4411C49.0013 55.4411 48.9347 55.4386 48.8683 55.4322C48.4026 55.3877 47.9482 55.1862 47.5916 54.8295C46.7776 54.0146 46.777 52.6932 47.5916 51.8786ZM67.1107 51.8786C67.9253 51.064 69.2467 51.0644 70.0616 51.8786C70.8764 52.6935 70.8764 54.0146 70.0616 54.8295C69.7558 55.1353 69.3795 55.3273 68.9846 55.4037C68.8534 55.429 68.7202 55.4411 68.587 55.4411C68.2533 55.4412 67.9199 55.3612 67.617 55.2022C67.4958 55.1385 67.3787 55.0631 67.2693 54.974C67.2147 54.9294 67.1616 54.8805 67.1107 54.8295C66.3983 54.1166 66.3088 53.0164 66.8432 52.2067C66.9196 52.0908 67.0087 51.9806 67.1107 51.8786ZM54.2299 48.1895L57.1844 51.1404L55.7081 52.6168L54.2317 51.1422L52.7571 52.6168L49.8062 49.6658L51.2807 48.1912L49.8062 46.7149L51.2807 45.2403L54.2299 48.1895ZM67.8488 46.7149L66.3743 48.1912L67.8488 49.6658L64.8979 52.6168L63.4215 51.1422L61.9469 52.6168L60.4706 51.1422L66.3743 45.2403L67.8488 46.7149ZM68.5442 39.7806L62.7154 44.1509L63.8655 45.6825L60.9146 48.6334L58.8266 47.0679L56.7404 48.6334L53.7895 45.6825L54.936 44.1509L49.109 39.7806L47.6344 32.4023L55.0127 33.8787L58.8266 38.964L62.6423 33.8787L70.0206 32.4023L68.5442 39.7806Z" fill="#C8590F"/>
<path d="M47.5916 50.7101C48.4062 49.8955 49.7276 49.8961 50.5426 50.7101C50.6956 50.8631 50.8214 51.0344 50.917 51.2165C50.9485 51.2766 50.9773 51.3378 51.0026 51.4001C51.2065 51.9025 51.2062 52.4685 51.0026 52.971C50.9007 53.2225 50.7465 53.4588 50.5426 53.6628C50.1352 54.0697 49.6016 54.2726 49.068 54.2726C49.0013 54.2726 48.9347 54.27 48.8683 54.2637C48.4026 54.2192 47.9482 54.0176 47.5916 53.661C46.7776 52.8461 46.777 51.5247 47.5916 50.7101ZM67.1107 50.7101C67.9253 49.8955 69.2467 49.8959 70.0616 50.7101C70.8764 51.5249 70.8764 52.8461 70.0616 53.661C69.7558 53.9668 69.3795 54.1588 68.9846 54.2352C68.8534 54.2605 68.7202 54.2726 68.587 54.2726C68.2533 54.2727 67.9199 54.1927 67.617 54.0337C67.4958 53.97 67.3787 53.8946 67.2693 53.8054C67.2147 53.7609 67.1616 53.712 67.1107 53.661C66.3983 52.9481 66.3088 51.8478 66.8432 51.0382C66.9196 50.9223 67.0087 50.8121 67.1107 50.7101ZM54.2299 47.0209L57.1844 49.9719L55.7081 51.4483L54.2317 49.9737L52.7571 51.4483L49.8062 48.4973L51.2807 47.0227L49.8062 45.5464L51.2807 44.0718L54.2299 47.0209ZM67.8488 45.5464L66.3743 47.0227L67.8488 48.4973L64.8979 51.4483L63.4215 49.9737L61.9469 51.4483L60.4706 49.9737L66.3743 44.0718L67.8488 45.5464ZM68.5442 38.6121L62.7154 42.9823L63.8655 44.514L60.9146 47.4649L58.8266 45.8994L56.7404 47.4649L53.7895 44.514L54.936 42.9823L49.109 38.6121L47.6344 31.2338L55.0127 32.7102L58.8266 37.7954L62.6423 32.7102L70.0206 31.2338L68.5442 38.6121Z" fill="#FFB414"/>
<defs>
<linearGradient id="paint0_linear_314_2977" x1="9.16797" y1="46.5617" x2="67.5952" y2="104.988" gradientUnits="userSpaceOnUse">
<stop stop-color="#FFB516"/>
<stop offset="1" stop-color="#FFA600"/>
</linearGradient>
<linearGradient id="paint1_linear_314_2977" x1="52.4039" y1="46.5616" x2="110.831" y2="104.988" gradientUnits="userSpaceOnUse">
<stop stop-color="#FFB516"/>
<stop offset="1" stop-color="#FFA600"/>
</linearGradient>
<linearGradient id="paint2_linear_314_2977" x1="29.6174" y1="15.0114" x2="88.0446" y2="73.438" gradientUnits="userSpaceOnUse">
<stop stop-color="#FFB516"/>
<stop offset="1" stop-color="#FFA600"/>
</linearGradient>
</defs>
</svg>
