<svg width="120" height="120" viewBox="0 0 120 120" fill="none" xmlns="http://www.w3.org/2000/svg">
<circle cx="60" cy="60" r="52" fill="#101010"/>
<circle cx="60" cy="60" r="50" fill="#C8590F"/>
<mask id="path-3-outside-1_314_2976" maskUnits="userSpaceOnUse" x="8.06152" y="9" width="103" height="97" fill="black">
<rect fill="white" x="8.06152" y="9" width="103" height="97"/>
<path d="M60 10C86.7759 10 108.635 31.0472 109.938 57.5C108.635 83.9528 86.7759 105 60 105C33.2241 105 11.3641 83.9528 10.0615 57.5C11.3641 31.0472 33.2241 10 60 10Z"/>
</mask>
<path d="M60 10C86.7759 10 108.635 31.0472 109.938 57.5C108.635 83.9528 86.7759 105 60 105C33.2241 105 11.3641 83.9528 10.0615 57.5C11.3641 31.0472 33.2241 10 60 10Z" fill="url(#paint0_linear_314_2976)"/>
<path d="M109.938 57.5L110.936 57.5492L110.939 57.5L110.936 57.4508L109.938 57.5ZM10.0615 57.5L9.06273 57.4508L9.06031 57.5L9.06273 57.5492L10.0615 57.5ZM60 10V11C86.2401 11 107.662 31.6263 108.939 57.5492L109.938 57.5L110.936 57.4508C109.608 30.4682 87.3117 9 60 9V10ZM109.938 57.5L108.939 57.4508C107.662 83.3737 86.2401 104 60 104V105V106C87.3117 106 109.608 84.5318 110.936 57.5492L109.938 57.5ZM60 105V104C33.7599 104 12.3368 83.3737 11.0603 57.4508L10.0615 57.5L9.06273 57.5492C10.3914 84.5318 32.6883 106 60 106V105ZM10.0615 57.5L11.0603 57.5492C12.3368 31.6263 33.7599 11 60 11V10V9C32.6883 9 10.3914 30.4682 9.06273 57.4508L10.0615 57.5Z" fill="black" fill-opacity="0.1" mask="url(#path-3-outside-1_314_2976)"/>
<path d="M108.296 67.941C106.597 74.2833 103.665 80.2288 99.6677 85.4381C95.6705 90.6473 90.6864 95.0182 85 98.3013L60 55L108.296 67.941Z" fill="#FFC350"/>
<circle cx="60" cy="57" r="35" fill="#C8590F"/>
<mask id="path-7-inside-2_314_2976" fill="white">
<path d="M60 24C78.9955 24 94.455 39.1325 94.9844 58C94.455 76.8675 78.9955 92 60 92C41.0045 92 25.544 76.8675 25.0146 58C25.544 39.1325 41.0045 24 60 24Z"/>
</mask>
<path d="M60 24C78.9955 24 94.455 39.1325 94.9844 58C94.455 76.8675 78.9955 92 60 92C41.0045 92 25.544 76.8675 25.0146 58C25.544 39.1325 41.0045 24 60 24Z" fill="#450C33"/>
<path d="M94.9844 58L96.9836 58.0561L96.9852 58L96.9836 57.9439L94.9844 58ZM25.0146 58L23.0154 57.9439L23.0139 58L23.0154 58.0561L25.0146 58ZM60 24V26C77.9096 26 92.4861 40.2677 92.9852 58.0561L94.9844 58L96.9836 57.9439C96.424 37.9973 80.0814 22 60 22V24ZM94.9844 58L92.9852 57.9439C92.4861 75.7323 77.9096 90 60 90V92V94C80.0814 94 96.424 78.0027 96.9836 58.0561L94.9844 58ZM60 92V90C42.0903 90 27.5129 75.7322 27.0139 57.9439L25.0146 58L23.0154 58.0561C23.5751 78.0028 39.9187 94 60 94V92ZM25.0146 58L27.0139 58.0561C27.5129 40.2678 42.0903 26 60 26V24V22C39.9187 22 23.5751 37.9972 23.0154 57.9439L25.0146 58Z" fill="#1A112C" fill-opacity="0.3" mask="url(#path-7-inside-2_314_2976)"/>
<path d="M40.7626 73.0995C42.1568 71.7054 44.4184 71.7063 45.8132 73.0995C46.0751 73.3614 46.2906 73.6546 46.4541 73.9662C46.5081 74.069 46.5573 74.1739 46.6006 74.2805C46.9495 75.1404 46.9491 76.1091 46.6006 76.9691C46.4263 77.3996 46.1623 77.8041 45.8132 78.1532C45.1161 78.8496 44.2028 79.1969 43.2894 79.1969C43.1754 79.1969 43.0612 79.1925 42.9476 79.1816C42.1505 79.1054 41.3729 78.7605 40.7626 78.1501C39.3693 76.7553 39.3684 74.4937 40.7626 73.0995ZM74.1701 73.0995C75.5645 71.7053 77.826 71.7059 79.2208 73.0995C80.6154 74.4942 80.6154 76.7554 79.2208 78.1501C78.6975 78.6734 78.0533 79.0022 77.3775 79.1328C77.153 79.1762 76.9249 79.1969 76.697 79.1969C76.1258 79.197 75.5552 79.0602 75.0368 78.788C74.8293 78.679 74.629 78.55 74.4418 78.3973C74.3482 78.3211 74.2573 78.2373 74.1701 78.1501C72.951 76.9299 72.7978 75.0468 73.7124 73.661C73.8432 73.4627 73.9956 73.2741 74.1701 73.0995ZM52.1243 66.7854L57.181 71.8361L54.6542 74.3629L52.1273 71.8391L49.6035 74.3629L44.5528 69.3123L47.0766 66.7885L44.5528 64.2616L47.0766 61.7378L52.1243 66.7854ZM75.4336 64.2616L72.9098 66.7885L75.4336 69.3123L70.3829 74.3629L67.8561 71.8391L65.3323 74.3629L62.8054 71.8391L72.9098 61.7378L75.4336 64.2616ZM76.6238 52.3933L66.6476 59.8732L68.6159 62.4946L63.5653 67.5453L59.9917 64.8658L56.4211 67.5453L51.3705 62.4946L53.3327 59.8732L43.3596 52.3933L40.8358 39.7651L53.464 42.292L59.9917 50.9956L66.5224 42.292L79.1506 39.7651L76.6238 52.3933Z" fill="#C8590F"/>
<path d="M40.7626 71.0995C42.1568 69.7054 44.4184 69.7063 45.8132 71.0995C46.0751 71.3614 46.2906 71.6546 46.4541 71.9662C46.5081 72.069 46.5573 72.1739 46.6006 72.2805C46.9495 73.1404 46.9491 74.1091 46.6006 74.9691C46.4263 75.3996 46.1623 75.8041 45.8132 76.1532C45.1161 76.8496 44.2028 77.1969 43.2894 77.1969C43.1754 77.1969 43.0612 77.1925 42.9476 77.1816C42.1505 77.1054 41.3729 76.7605 40.7626 76.1501C39.3693 74.7553 39.3684 72.4937 40.7626 71.0995ZM74.1701 71.0995C75.5645 69.7053 77.826 69.7059 79.2208 71.0995C80.6154 72.4942 80.6154 74.7554 79.2208 76.1501C78.6975 76.6734 78.0533 77.0022 77.3775 77.1328C77.153 77.1762 76.9249 77.1969 76.697 77.1969C76.1258 77.197 75.5552 77.0602 75.0368 76.788C74.8293 76.679 74.629 76.55 74.4418 76.3973C74.3482 76.3211 74.2573 76.2373 74.1701 76.1501C72.951 74.9299 72.7978 73.0468 73.7124 71.661C73.8432 71.4627 73.9956 71.2741 74.1701 71.0995ZM52.1243 64.7854L57.181 69.8361L54.6542 72.3629L52.1273 69.8391L49.6035 72.3629L44.5528 67.3123L47.0766 64.7885L44.5528 62.2616L47.0766 59.7378L52.1243 64.7854ZM75.4336 62.2616L72.9098 64.7885L75.4336 67.3123L70.3829 72.3629L67.8561 69.8391L65.3323 72.3629L62.8054 69.8391L72.9098 59.7378L75.4336 62.2616ZM76.6238 50.3933L66.6476 57.8732L68.6159 60.4946L63.5653 65.5453L59.9917 62.8658L56.4211 65.5453L51.3705 60.4946L53.3327 57.8732L43.3596 50.3933L40.8358 37.7651L53.464 40.292L59.9917 48.9956L66.5224 40.292L79.1506 37.7651L76.6238 50.3933Z" fill="#FFB414"/>
<defs>
<linearGradient id="paint0_linear_314_2976" x1="9.99903" y1="10" x2="109.999" y2="110.001" gradientUnits="userSpaceOnUse">
<stop stop-color="#FFB516"/>
<stop offset="1" stop-color="#FFA600"/>
</linearGradient>
</defs>
</svg>
